<mxfile host="app.diagrams.net" modified="2024-03-14T17:12:40.589Z" agent="Mozilla/5.0 (X11; Ubuntu; Linux x86_64; rv:109.0) Gecko/20100101 Firefox/118.0" version="24.0.6" etag="QVjyJFbV1fl9lSlKMzm1" type="github">
  <diagram name="Page-1" id="hsY-egusE9dGklQw_Ssf">
    <mxGraphModel>
      <root>
        <mxCell id="0" />
        <mxCell id="1" parent="0" />
      </root>
    </mxGraphModel>
  </diagram>
</mxfile>
